<svg xmlns="http://www.w3.org/2000/svg" viewBox="0 0 1920 1081.56"><title>bg-start-big</title><path fill="#124888" d="M0 1080l1196.83 1.56 400-231.4L124.06 0H0v1080z"/><path fill="#271a56" opacity=".2" d="M931.97 452.82L147.67 0H0v1080l931.97-627.18z"/><path fill="none" d="M0 0h1920v1080H0z"/><path fill="#124888" d="M1620.19 850.16L1222.09 1080h398.1V850.16z"/><path fill="#271a56" opacity=".2" d="M1620.19 850.16L1222.09 1080h398.1V850.16z"/><path fill="#c9c3ca" d="M931.97 452.82L147.67 0h-46.72l467.03 269.64L0 615.52v27.34l591.03-359.92L910.4 467.33l21.57-14.51z"/><path fill="#f1eee7" d="M931.97 452.82l688.22 397.34-398.1 229.84h-46.71l398.09-229.84L910.4 467.33l21.57-14.51z"/></svg>