<svg xmlns="http://www.w3.org/2000/svg" viewBox="0 0 1920 1081.56"><title>bg-start-big</title><polygon points="0 1080 1196.83 1081.56 1596.83 850.16 124.06 0 0 0 0 1080" style="fill:#124888"/><polygon points="931.97 452.82 147.67 0 0 0 0 1080 931.97 452.82" style="fill:#271a56;opacity:0.2"/><path d="M666.42,2572.93" transform="translate(0)" style="fill:#44237f"/><path d="M1329.84,2916.52" transform="translate(0)" style="fill:#271a56"/><rect width="1920" height="1080" style="fill:none"/><polygon points="1620.19 850.16 1222.09 1080 1222.09 1080 1620.19 1080 1620.19 850.16" style="fill:#124888"/><polygon points="1620.19 850.16 1222.09 1080 1222.09 1080 1620.19 1080 1620.19 850.16" style="fill:#271a56;opacity:0.2"/><polygon points="931.97 452.82 147.67 0 100.95 0 567.98 269.64 0 615.52 0 642.86 591.03 282.94 910.4 467.33 931.97 452.82" style="fill:#c9c3ca"/><polygon points="931.97 452.82 1620.19 850.16 1222.09 1080 1175.38 1080 1573.47 850.16 910.4 467.33 931.97 452.82" style="fill:#f1eee7"/></svg>