<svg xmlns="http://www.w3.org/2000/svg" width="9.88cm" height="3.79cm" viewBox="0 0 280 107.49"><title>logo-wild</title><g fill="#fff"><path d="M85.15 78.09L68.18 34.92H53.04L36.21 78.09 20.37 34.92H0l28.71 70.73h14.15l17.82-42.02 17.68 42.02h14.15l28.71-70.73h-20.36L85.15 78.09zM134.41 34.92h18.67v70.73h-18.67zM172.69 6.63h18.81v99.02h-18.81zM143.69 0a11.18 11.18 0 0 0-11.37 11.5 11.43 11.43 0 0 0 22.87 0A11.38 11.38 0 0 0 143.69 0zM261.33 6.63v36.44a32.25 32.25 0 0 0-23.36-10h-2.08a22.57 22.57 0 0 0-2.34.21 30.61 30.61 0 0 0-8.29 2.22 29.54 29.54 0 0 0-10.18 7.21 34.45 34.45 0 0 0-6.93 11.67 45.8 45.8 0 0 0-2.54 15.84 45.79 45.79 0 0 0 2.54 15.84 33.82 33.82 0 0 0 7 11.67A30.26 30.26 0 0 0 225.4 105a31.38 31.38 0 0 0 12.45 2.48h.78q.87 0 1.72-.08h.2a32.29 32.29 0 0 0 20.77-9.87v8.15H280v-99zm-4.7 78.15a19.18 19.18 0 0 1-13.83 5.32 20.67 20.67 0 0 1-7.69-1.41 17.83 17.83 0 0 1-6.14-4 18.38 18.38 0 0 1-4.07-6.29 23.12 23.12 0 0 1 0-16.27 18.43 18.43 0 0 1 4.1-6.27 17.9 17.9 0 0 1 6.14-4 20.71 20.71 0 0 1 7.69-1.41 19.34 19.34 0 0 1 13.83 5.25q5.55 5.25 5.55 14.57t-5.58 14.51z"/></g></svg>