<svg xmlns="http://www.w3.org/2000/svg" width="2.45cm" height="1.45cm" viewBox="0 0 69.34 41.1">
  <title>icon-cardboard</title>
  <path d="M61.91,0H7.63A7.58,7.58,0,0,0,.05,7.58h0V33.52A7.58,7.58,0,0,0,7.63,41.1H26.48l5-9a3.74,3.74,0,0,1,6.48,0l5,9H61.81a7.58,7.58,0,0,0,7.58-7.58h0V7.58A7.43,7.43,0,0,0,62.11,0h-.2ZM17.61,27.93a7.48,7.48,0,1,1,7.48-7.48h0A7.48,7.48,0,0,1,17.61,27.93ZM51,27.83a7.38,7.38,0,1,1,7.38-7.38A7.38,7.38,0,0,1,51,27.83Z" transform="translate(-0.05 0)" fill="#ffffff"/>
</svg>
