<?xml version="1.0" encoding="utf-8"?>
<!-- Generator: Adobe Illustrator 20.1.0, SVG Export Plug-In . SVG Version: 6.00 Build 0)  -->
<svg version="1.1" id="Layer_1" xmlns="http://www.w3.org/2000/svg" xmlns:xlink="http://www.w3.org/1999/xlink" x="0px" y="0px"
	 viewBox="0 0 150 161.5" style="enable-background:new 0 0 150 161.5;" xml:space="preserve">
<style type="text/css">
	.st0{fill:#FFFFFF;}
</style>
<g>
	<rect x="20.1" y="110.7" class="st0" width="30.8" height="16.9"/>
	<rect x="99.1" y="110.7" class="st0" width="30.8" height="16.9"/>
	<polygon class="st0" points="99.1,93.7 99.1,80.2 83.9,80.2 83.9,93.7 66.1,93.7 66.1,80.2 50.9,80.2 50.9,93.7 50.9,110.7 
		99.1,110.7 	"/>
	<polygon class="st0" points="129.9,127.6 129.9,144.6 20.1,144.6 20.1,127.6 0,127.6 0,144.6 0,161.5 150,161.5 150,144.6 
		150,127.6 	"/>
	<polygon class="st0" points="66.1,30.5 66.1,16.9 83.9,16.9 83.9,30.5 99.1,30.5 99.1,80.2 114.3,80.2 114.3,16.9 99.1,16.9 
		99.1,0 50.9,0 50.9,16.9 35.7,16.9 35.7,80.2 50.9,80.2 50.9,30.5 	"/>
</g>
</svg>
