<?xml version="1.0" encoding="utf-8"?>
<!-- Generator: Adobe Illustrator 21.0.0, SVG Export Plug-In . SVG Version: 6.00 Build 0)  -->
<svg version="1.1" xmlns="http://www.w3.org/2000/svg" xmlns:xlink="http://www.w3.org/1999/xlink" x="0px" y="0px"
	 viewBox="0 0 1920 1080" style="enable-background:new 0 0 1920 1080;" xml:space="preserve">
<style type="text/css">
	.st0{fill:#4332A5;}
	.st1{fill:#392B8E;}
	.st2{fill:#1C1A54;}
	.st3{fill:#BEC0CC;}
	.st4{fill:#AFB2BC;}
	.st5{fill:#302575;}
	.st6{fill:#F9FC56;}
</style>
<g id="Layer_2">
</g>
<g id="Layer_1">
	<polygon id="panel-light" class="st0" points="0,1080 1222.1,1080 1620.2,850.2 1009.9,497.8 	"/>
	<polygon id="panel-dark" class="st1" points="147.7,0 0,0 0,1080 1009.9,497.8 	"/>
	<polygon id="panel-side" class="st2" points="1620.2,850.2 1222.1,1080 1222.1,1080 1620.2,1080 	"/>
	<polygon id="lines-light" class="st3" points="1462.1,758.9 1009.9,497.8 986.5,511.3 1573.5,850.2 1175.4,1080 1222.1,1080 
		1620.2,850.2 	"/>
	<polygon id="lines-dark" class="st4" points="0,595.5 0,622.9 591,282.9 986.5,511.3 1009.9,497.8 147.7,0 101,0 568,269.6 	"/>
	<ellipse id="ball-shadow" class="st2" cx="1205.4" cy="829.8" rx="85.6" ry="41.2"/>
	<polygon id="top-mask" class="st5" points="1920,0 147.7,0 1620.2,850.2 1620.2,1080 1920,1080 	"/>
	<circle id="ball" class="st6" cx="1205.4" cy="637" r="98"/>
	<g id="Layer_1_1_">
	</g>
</g>
</svg>
