<?xml version="1.0" standalone="no"?>
<!DOCTYPE svg PUBLIC "-//W3C//DTD SVG 20010904//EN"
 "http://www.w3.org/TR/2001/REC-SVG-20010904/DTD/svg10.dtd">
<svg version="1.0" xmlns="http://www.w3.org/2000/svg"
 width="16.000000pt" height="16.000000pt" viewBox="0 0 16.000000 16.000000"
 preserveAspectRatio="xMidYMid meet">
<metadata>
Created by potrace 1.11, written by Peter Selinger 2001-2013
</metadata>
<g transform="translate(0.000000,16.000000) scale(0.006154,-0.006154)"
fill="#000000" stroke="none">
<path d="M0 2415 c0 -102 3 -185 8 -185 4 0 189 -105 412 -234 l405 -233 59
48 c124 100 260 149 414 149 261 0 496 -159 599 -405 43 -103 49 -177 30 -398
-2 -28 9 -35 278 -191 154 -89 306 -177 338 -195 l57 -32 0 930 0 931 -1300 0
-1300 0 0 -185z"/>
<path d="M0 1030 l0 -1030 1300 0 1300 0 -2 281 -3 282 -150 87 c-354 206
-580 335 -586 335 -4 0 -27 -27 -51 -60 -75 -101 -180 -175 -313 -221 -66 -22
-98 -27 -185 -28 -125 -1 -187 13 -299 66 -120 57 -232 169 -289 289 -53 111
-67 173 -66 294 0 104 16 177 56 262 12 26 17 48 12 53 -5 5 -151 90 -324 190
-173 100 -334 193 -357 206 l-43 25 0 -1031z"/>
</g>
</svg>
