# Blender v2.77 (sub 0) OBJ File: ''
# www.blender.org
mtllib paddle.mtl
o Cap_2_1
v 2.413548 -3.963533 0.240655
v -0.036046 -3.963533 0.240655
v -2.485639 -3.963533 0.240655
v -2.137155 -4.085435 0.240655
v -1.837460 -4.226612 0.240655
v -1.583702 -4.379497 0.240655
v -1.373029 -4.536532 0.240655
v -1.202591 -4.690155 0.240655
v -1.047160 -4.859348 0.240655
v -0.940633 -4.999671 0.240655
v -0.878083 -5.098059 0.240655
v -0.854115 -5.142409 0.240655
v -1.016062 -9.041519 0.240654
v -0.671765 -9.095621 0.240654
v -0.222550 -9.127279 0.240654
v -0.036046 -9.128719 0.240654
v 0.340629 -9.118561 0.240654
v 0.627459 -9.092340 0.240654
v 0.943969 -9.041519 0.240654
v 0.782025 -5.142409 0.240655
v 0.813573 -5.085128 0.240655
v 0.898922 -4.956912 0.240655
v 1.021202 -4.805513 0.240655
v 1.194030 -4.629598 0.240655
v 1.380219 -4.473705 0.240655
v 1.607783 -4.317421 0.240655
v 1.879574 -4.168313 0.240655
v 2.130766 -4.059271 0.240655
vn -0.0000 -0.0000 1.0000
usemtl default
s 1
f 12//1 16//1 20//1
f 28//1 1//1 2//1
f 2//1 3//1 4//1
f 2//1 4//1 5//1
f 27//1 28//1 2//1
f 26//1 27//1 2//1
f 2//1 5//1 6//1
f 2//1 6//1 7//1
f 25//1 26//1 2//1
f 24//1 25//1 2//1
f 2//1 7//1 8//1
f 2//1 8//1 9//1
f 23//1 24//1 2//1
f 22//1 23//1 2//1
f 2//1 9//1 10//1
f 2//1 10//1 11//1
f 21//1 22//1 2//1
f 18//1 19//1 20//1
f 20//1 21//1 2//1
f 2//1 11//1 12//1
f 12//1 13//1 14//1
f 14//1 15//1 12//1
f 16//1 17//1 20//1
f 18//1 20//1 17//1
f 2//1 12//1 20//1
f 15//1 16//1 12//1
o Cap_1_1
v 2.413548 -3.963533 -0.130496
v 2.130766 -4.059271 -0.130496
v 1.879574 -4.168313 -0.130496
v 1.607783 -4.317421 -0.130496
v 1.380219 -4.473705 -0.130496
v 1.194030 -4.629598 -0.130496
v 1.021202 -4.805513 -0.130496
v 0.898922 -4.956912 -0.130496
v 0.813573 -5.085128 -0.130496
v 0.782025 -5.142409 -0.130496
v 0.943969 -9.041519 -0.130496
v 0.627459 -9.092340 -0.130496
v 0.340629 -9.118561 -0.130496
v -0.036046 -9.128719 -0.130496
v -0.222550 -9.127279 -0.130496
v -0.671765 -9.095621 -0.130496
v -1.016062 -9.041519 -0.130496
v -0.854115 -5.142409 -0.130496
v -0.878083 -5.098059 -0.130496
v -0.940633 -4.999671 -0.130496
v -1.047160 -4.859348 -0.130496
v -1.202591 -4.690155 -0.130496
v -1.373029 -4.536532 -0.130496
v -1.583702 -4.379497 -0.130496
v -1.837460 -4.226612 -0.130496
v -2.137155 -4.085435 -0.130496
v -2.485639 -3.963533 -0.130496
v -0.036046 -3.963533 -0.130496
vn 0.0000 0.0000 -1.0000
usemtl default
s 1
f 42//2 46//2 38//2
f 56//2 29//2 30//2
f 56//2 30//2 31//2
f 54//2 55//2 56//2
f 53//2 54//2 56//2
f 56//2 31//2 32//2
f 56//2 32//2 33//2
f 52//2 53//2 56//2
f 51//2 52//2 56//2
f 56//2 33//2 34//2
f 56//2 34//2 35//2
f 50//2 51//2 56//2
f 49//2 50//2 56//2
f 56//2 35//2 36//2
f 56//2 36//2 37//2
f 48//2 49//2 56//2
f 47//2 48//2 56//2
f 56//2 37//2 38//2
f 38//2 39//2 40//2
f 40//2 41//2 38//2
f 42//2 43//2 46//2
f 44//2 45//2 46//2
f 46//2 47//2 56//2
f 56//2 38//2 46//2
f 41//2 42//2 38//2
f 44//2 46//2 43//2
o Cap_1
v 3.972380 -0.010780 -0.388089
v 3.974204 -0.761171 -0.388089
v 3.935391 -1.259130 -0.388089
v 3.838847 -1.841841 -0.388089
v 3.701142 -2.337671 -0.388089
v 3.533224 -2.753118 -0.388089
v 3.394040 -3.015863 -0.388089
v 3.248636 -3.239789 -0.388089
v 3.101628 -3.427640 -0.388089
v 2.911105 -3.626729 -0.388089
v 2.736886 -3.773057 -0.388089
v 2.589918 -3.873121 -0.388089
v 2.461204 -3.943045 -0.388089
v 2.413548 -3.963533 -0.388089
v -0.036046 -3.963533 -0.388089
v -2.485639 -3.963533 -0.388089
v -2.516595 -3.950692 -0.388089
v -2.602165 -3.907835 -0.388089
v -2.731404 -3.828465 -0.388089
v -2.893365 -3.706082 -0.388089
v -3.077105 -3.534186 -0.388089
v -3.271675 -3.306280 -0.388089
v -3.418127 -3.094682 -0.388089
v -3.559897 -2.845183 -0.388089
v -3.733660 -2.448816 -0.388089
v -3.879944 -1.973691 -0.388089
v -3.987805 -1.413309 -0.388089
v -4.046295 -0.761171 -0.388089
v -4.044471 -0.010780 -0.388089
v -3.997574 0.567636 -0.388089
v -3.944762 0.928231 -0.388088
v -3.791175 1.590987 -0.388088
v -3.637301 2.038327 -0.388088
v -3.453395 2.444380 -0.388088
v -3.242273 2.810349 -0.388088
v -3.006747 3.137437 -0.388088
v -2.749632 3.426846 -0.388088
v -2.473742 3.679777 -0.388088
v -2.181890 3.897435 -0.388088
v -1.876890 4.081020 -0.388088
v -1.561556 4.231737 -0.388088
v -1.238704 4.350787 -0.388088
v -0.911144 4.439374 -0.388088
v -0.471942 4.512178 -0.388088
v -0.036046 4.535813 -0.388088
v 0.290305 4.522586 -0.388088
v 0.509601 4.498698 -0.388088
v 0.948587 4.413156 -0.388088
v 1.274891 4.314548 -0.388088
v 1.595551 4.185076 -0.388088
v 1.907752 4.023537 -0.388088
v 2.208682 3.828727 -0.388088
v 2.495525 3.599445 -0.388088
v 2.765471 3.334488 -0.388088
v 3.015702 3.032654 -0.388088
v 3.243406 2.692739 -0.388088
v 3.445768 2.313542 -0.388088
v 3.619976 1.893860 -0.388088
v 3.763214 1.432491 -0.388088
v 3.901161 0.750405 -0.388088
vn 0.0000 0.0000 -1.0000
usemtl default
s 1
f 113//3 90//3 101//3
f 116//3 57//3 71//3
f 58//3 59//3 71//3
f 60//3 61//3 71//3
f 62//3 63//3 71//3
f 64//3 65//3 70//3
f 66//3 67//3 70//3
f 68//3 69//3 70//3
f 71//3 79//3 80//3
f 68//3 70//3 67//3
f 65//3 66//3 70//3
f 61//3 62//3 71//3
f 57//3 58//3 71//3
f 114//3 115//3 88//3
f 112//3 113//3 101//3
f 110//3 111//3 105//3
f 108//3 109//3 107//3
f 106//3 107//3 109//3
f 104//3 105//3 111//3
f 102//3 103//3 112//3
f 100//3 91//3 99//3
f 98//3 99//3 92//3
f 96//3 97//3 93//3
f 94//3 95//3 96//3
f 92//3 93//3 97//3
f 90//3 113//3 89//3
f 88//3 89//3 114//3
f 86//3 87//3 116//3
f 84//3 85//3 71//3
f 82//3 83//3 71//3
f 80//3 81//3 71//3
f 78//3 72//3 77//3
f 76//3 72//3 75//3
f 74//3 75//3 72//3
f 72//3 79//3 71//3
f 64//3 70//3 63//3
f 59//3 60//3 71//3
f 90//3 100//3 101//3
f 109//3 110//3 106//3
f 105//3 106//3 110//3
f 101//3 102//3 112//3
f 97//3 98//3 92//3
f 93//3 94//3 96//3
f 89//3 113//3 114//3
f 85//3 86//3 71//3
f 81//3 82//3 71//3
f 72//3 73//3 74//3
f 78//3 79//3 72//3
f 63//3 70//3 71//3
f 111//3 112//3 104//3
f 103//3 104//3 112//3
f 92//3 99//3 91//3
f 87//3 115//3 116//3
f 72//3 76//3 77//3
f 116//3 71//3 86//3
f 90//3 91//3 100//3
f 88//3 115//3 87//3
f 71//3 83//3 84//3
o Extrude
v 3.972380 -0.010780 -0.388089
v 3.901161 0.750405 -0.388088
v 3.901161 0.750405 0.477929
v 3.972380 -0.010780 0.477929
v 3.763214 1.432491 -0.388088
v 3.763214 1.432491 0.477929
v 3.619976 1.893860 -0.388088
v 3.619976 1.893860 0.477930
v 3.445768 2.313542 -0.388088
v 3.445768 2.313542 0.477930
v 3.243406 2.692739 -0.388088
v 3.243406 2.692739 0.477930
v 3.015702 3.032654 -0.388088
v 3.015702 3.032654 0.477930
v 2.765471 3.334488 -0.388088
v 2.765471 3.334488 0.477930
v 2.495525 3.599445 -0.388088
v 2.495525 3.599445 0.477930
v 2.208682 3.828727 -0.388088
v 2.208682 3.828727 0.477930
v 1.907752 4.023537 -0.388088
v 1.907752 4.023537 0.477930
v 1.595551 4.185076 -0.388088
v 1.595551 4.185076 0.477930
v 1.274891 4.314548 -0.388088
v 1.274891 4.314548 0.477930
v 0.948587 4.413156 -0.388088
v 0.948587 4.413156 0.477930
v 0.509601 4.498698 -0.388088
v 0.509601 4.498698 0.477930
v 0.290305 4.522586 -0.388088
v 0.290305 4.522585 0.477930
v -0.036046 4.535813 -0.388088
v -0.036046 4.535813 0.477930
v -0.471942 4.512178 -0.388088
v -0.471942 4.512178 0.477930
v -0.911144 4.439374 -0.388088
v -0.911144 4.439373 0.477930
v -1.238704 4.350787 -0.388088
v -1.238704 4.350787 0.477930
v -1.561556 4.231737 -0.388088
v -1.561556 4.231737 0.477930
v -1.876890 4.081020 -0.388088
v -1.876890 4.081020 0.477930
v -2.181890 3.897435 -0.388088
v -2.181890 3.897434 0.477930
v -2.473742 3.679777 -0.388088
v -2.473742 3.679777 0.477930
v -2.749632 3.426846 -0.388088
v -2.749632 3.426845 0.477930
v -3.006747 3.137437 -0.388088
v -3.006747 3.137437 0.477930
v -3.242273 2.810349 -0.388088
v -3.242273 2.810349 0.477930
v -3.453395 2.444380 -0.388088
v -3.453395 2.444380 0.477930
v -3.637301 2.038327 -0.388088
v -3.637301 2.038327 0.477930
v -3.791175 1.590987 -0.388088
v -3.791175 1.590987 0.477929
v -3.944762 0.928231 -0.388088
v -3.944762 0.928231 0.477929
v -3.997574 0.567636 -0.388089
v -3.997574 0.567636 0.477929
v -4.044471 -0.010780 -0.388089
v -4.044471 -0.010780 0.477929
v -4.046295 -0.761171 -0.388089
v -4.046295 -0.761171 0.477929
v -3.987805 -1.413309 -0.388089
v -3.987805 -1.413309 0.477929
v -3.879944 -1.973691 -0.388089
v -3.879944 -1.973691 0.477929
v -3.733660 -2.448816 -0.388089
v -3.733660 -2.448816 0.477929
v -3.559897 -2.845183 -0.388089
v -3.559897 -2.845183 0.477929
v -3.418127 -3.094682 -0.388089
v -3.418127 -3.094682 0.477929
v -3.271675 -3.306280 -0.388089
v -3.271675 -3.306280 0.477929
v -3.077105 -3.534186 -0.388089
v -3.077105 -3.534186 0.477929
v -2.893365 -3.706082 -0.388089
v -2.893365 -3.706082 0.477929
v -2.731404 -3.828465 -0.388089
v -2.731404 -3.828465 0.477929
v -2.602165 -3.907835 -0.388089
v -2.602165 -3.907835 0.477929
v -2.516595 -3.950692 -0.388089
v -2.516595 -3.950692 0.477929
v -2.485639 -3.963533 -0.388089
v -2.485639 -3.963533 0.477929
v -0.036046 -3.963533 -0.388089
v -0.036046 -3.963533 0.477929
v 2.413548 -3.963533 -0.388089
v 2.413548 -3.963533 0.477929
v 2.461204 -3.943045 -0.388089
v 2.461204 -3.943045 0.477929
v 2.589918 -3.873121 -0.388089
v 2.589918 -3.873121 0.477929
v 2.736886 -3.773057 -0.388089
v 2.736886 -3.773057 0.477929
v 2.911105 -3.626729 -0.388089
v 2.911105 -3.626729 0.477929
v 3.101628 -3.427640 -0.388089
v 3.101628 -3.427640 0.477929
v 3.248636 -3.239789 -0.388089
v 3.248636 -3.239789 0.477929
v 3.394040 -3.015863 -0.388089
v 3.394040 -3.015863 0.477929
v 3.533224 -2.753118 -0.388089
v 3.533224 -2.753118 0.477929
v 3.701142 -2.337671 -0.388089
v 3.701142 -2.337671 0.477929
v 3.838847 -1.841841 -0.388089
v 3.838847 -1.841841 0.477929
v 3.935391 -1.259130 -0.388089
v 3.935391 -1.259130 0.477929
v 3.974204 -0.761171 -0.388089
v 3.974204 -0.761171 0.477929
vn 0.9893 0.1459 0.0000
vn 0.9989 0.0478 0.0000
vn 0.9688 0.2477 0.0000
vn 0.9403 0.3403 0.0000
vn 0.9040 0.4276 0.0000
vn 0.8576 0.5143 0.0000
vn 0.8014 0.5982 0.0000
vn 0.7361 0.6768 0.0000
vn 0.6633 0.7484 0.0000
vn 0.5846 0.8113 0.0000
vn 0.5021 0.8648 0.0000
vn 0.4174 0.9087 0.0000
vn 0.3322 0.9432 0.0000
vn 0.2406 0.9706 0.0000
vn 0.1499 0.9887 0.0000
vn 0.0744 0.9972 0.0000
vn -0.0068 1.0000 0.0000
vn -0.1090 0.9940 0.0000
vn -0.2126 0.9771 0.0000
vn -0.3038 0.9527 0.0000
vn -0.3890 0.9212 0.0000
vn -0.4740 0.8805 0.0000
vn -0.5575 0.8302 0.0000
vn -0.6376 0.7704 0.0000
vn -0.7126 0.7016 0.0000
vn -0.7806 0.6251 0.0000
vn -0.8399 0.5427 0.0000
vn -0.8896 0.4567 0.0000
vn -0.9293 0.3693 0.0000
vn -0.9612 0.2759 0.0000
vn -0.9826 0.1855 0.0000
vn -0.9936 0.1129 0.0000
vn -0.9991 0.0417 0.0000
vn -0.9991 -0.0435 0.0000
vn -0.9902 -0.1393 0.0000
vn -0.9703 -0.2420 0.0000
vn -0.9373 -0.3484 0.0000
vn -0.8938 -0.4484 0.0000
vn -0.8467 -0.5321 0.0000
vn -0.7924 -0.6100 0.0000
vn -0.7230 -0.6909 0.0000
vn -0.6439 -0.7651 0.0000
vn -0.5638 -0.8259 0.0000
vn -0.4860 -0.8739 0.0000
vn -0.4157 -0.9095 0.0000
vn -0.3832 -0.9237 0.0000
vn 0.0000 -1.0000 0.0000
vn 0.4366 -0.8996 0.0000
vn 0.3950 -0.9187 0.0000
vn 0.5207 -0.8537 0.0000
vn 0.6037 -0.7972 0.0000
vn 0.6838 -0.7296 0.0000
vn 0.7559 -0.6547 0.0000
vn 0.8139 -0.5810 0.0000
vn 0.8620 -0.5069 0.0000
vn 0.9066 -0.4220 0.0000
vn 0.9468 -0.3217 0.0000
vn 0.9764 -0.2158 0.0000
vn 0.9927 -0.1207 0.0000
vn 0.9993 -0.0377 0.0000
usemtl default
s 1
f 118//4 120//5 117//5
f 121//6 119//4 118//4
f 121//6 124//7 122//6
f 125//8 124//7 123//7
f 127//9 126//8 125//8
f 129//10 128//9 127//9
f 129//10 132//11 130//10
f 133//12 132//11 131//11
f 135//13 134//12 133//12
f 137//14 136//13 135//13
f 139//15 138//14 137//14
f 139//15 142//16 140//15
f 143//17 142//16 141//16
f 145//18 144//17 143//17
f 147//19 146//18 145//18
f 149//20 148//19 147//19
f 151//21 150//20 149//20
f 153//22 152//21 151//21
f 155//23 154//22 153//22
f 157//24 156//23 155//23
f 159//25 158//24 157//24
f 161//26 160//25 159//25
f 163//27 162//26 161//26
f 165//28 164//27 163//27
f 167//29 166//28 165//28
f 167//29 170//30 168//29
f 169//30 172//31 170//30
f 173//32 172//31 171//31
f 175//33 174//32 173//32
f 177//34 176//33 175//33
f 177//34 180//35 178//34
f 179//35 182//36 180//35
f 181//36 184//37 182//36
f 183//37 186//38 184//37
f 187//39 186//38 185//38
f 187//39 190//40 188//39
f 191//41 190//40 189//40
f 191//41 194//42 192//41
f 195//43 194//42 193//42
f 195//43 198//44 196//43
f 199//45 198//44 197//44
f 201//46 200//45 199//45
f 203//47 202//46 201//46
f 205//48 204//47 203//47
f 207//49 206//48 205//48
f 209//50 208//50 207//50
f 211//50 210//50 209//50
f 213//51 212//52 211//52
f 215//53 214//51 213//51
f 217//54 216//53 215//53
f 219//55 218//54 217//54
f 221//56 220//55 219//55
f 221//56 224//57 222//56
f 225//58 224//57 223//57
f 227//59 226//58 225//58
f 229//60 228//59 227//59
f 231//61 230//60 229//60
f 233//62 232//61 231//61
f 235//63 234//62 233//62
f 117//5 236//63 235//63
f 118//4 119//4 120//5
f 121//6 122//6 119//4
f 121//6 123//7 124//7
f 125//8 126//8 124//7
f 127//9 128//9 126//8
f 129//10 130//10 128//9
f 129//10 131//11 132//11
f 133//12 134//12 132//11
f 135//13 136//13 134//12
f 137//14 138//14 136//13
f 139//15 140//15 138//14
f 139//15 141//16 142//16
f 143//17 144//17 142//16
f 145//18 146//18 144//17
f 147//19 148//19 146//18
f 149//20 150//20 148//19
f 151//21 152//21 150//20
f 153//22 154//22 152//21
f 155//23 156//23 154//22
f 157//24 158//24 156//23
f 159//25 160//25 158//24
f 161//26 162//26 160//25
f 163//27 164//27 162//26
f 165//28 166//28 164//27
f 167//29 168//29 166//28
f 167//29 169//30 170//30
f 169//30 171//31 172//31
f 173//32 174//32 172//31
f 175//33 176//33 174//32
f 177//34 178//34 176//33
f 177//34 179//35 180//35
f 179//35 181//36 182//36
f 181//36 183//37 184//37
f 183//37 185//38 186//38
f 187//39 188//39 186//38
f 187//39 189//40 190//40
f 191//41 192//41 190//40
f 191//41 193//42 194//42
f 195//43 196//43 194//42
f 195//43 197//44 198//44
f 199//45 200//45 198//44
f 201//46 202//46 200//45
f 203//47 204//47 202//46
f 205//48 206//48 204//47
f 207//49 208//49 206//48
f 209//50 210//50 208//50
f 211//50 212//50 210//50
f 213//51 214//51 212//52
f 215//53 216//53 214//51
f 217//54 218//54 216//53
f 219//55 220//55 218//54
f 221//56 222//56 220//55
f 221//56 223//57 224//57
f 225//58 226//58 224//57
f 227//59 228//59 226//58
f 229//60 230//60 228//59
f 231//61 232//61 230//60
f 233//62 234//62 232//61
f 235//63 236//63 234//62
f 117//5 120//5 236//63
o Cap_2
v 3.972380 -0.010780 0.477929
v 3.901161 0.750405 0.477929
v 3.763214 1.432491 0.477929
v 3.619976 1.893860 0.477930
v 3.445768 2.313542 0.477930
v 3.243406 2.692739 0.477930
v 3.015702 3.032654 0.477930
v 2.765471 3.334488 0.477930
v 2.495525 3.599445 0.477930
v 2.208682 3.828727 0.477930
v 1.907752 4.023537 0.477930
v 1.595551 4.185076 0.477930
v 1.274891 4.314548 0.477930
v 0.948587 4.413156 0.477930
v 0.509601 4.498698 0.477930
v 0.290305 4.522585 0.477930
v -0.036046 4.535813 0.477930
v -0.471942 4.512178 0.477930
v -0.911144 4.439373 0.477930
v -1.238704 4.350787 0.477930
v -1.561556 4.231737 0.477930
v -1.876890 4.081020 0.477930
v -2.181890 3.897434 0.477930
v -2.473742 3.679777 0.477930
v -2.749632 3.426845 0.477930
v -3.006747 3.137437 0.477930
v -3.242273 2.810349 0.477930
v -3.453395 2.444380 0.477930
v -3.637301 2.038327 0.477930
v -3.791175 1.590987 0.477929
v -3.944762 0.928231 0.477929
v -3.997574 0.567636 0.477929
v -4.044471 -0.010780 0.477929
v -4.046295 -0.761171 0.477929
v -3.987805 -1.413309 0.477929
v -3.879944 -1.973691 0.477929
v -3.733660 -2.448816 0.477929
v -3.559897 -2.845183 0.477929
v -3.418127 -3.094682 0.477929
v -3.271675 -3.306280 0.477929
v -3.077105 -3.534186 0.477929
v -2.893365 -3.706082 0.477929
v -2.731404 -3.828465 0.477929
v -2.602165 -3.907835 0.477929
v -2.516595 -3.950692 0.477929
v -2.485639 -3.963533 0.477929
v -0.036046 -3.963533 0.477929
v 2.413548 -3.963533 0.477929
v 2.461204 -3.943045 0.477929
v 2.589918 -3.873121 0.477929
v 2.736886 -3.773057 0.477929
v 2.911105 -3.626729 0.477929
v 3.101628 -3.427640 0.477929
v 3.248636 -3.239789 0.477929
v 3.394040 -3.015863 0.477929
v 3.533224 -2.753118 0.477929
v 3.701142 -2.337671 0.477929
v 3.838847 -1.841841 0.477929
v 3.935391 -1.259130 0.477929
v 3.974204 -0.761171 0.477929
vn 0.0000 -0.0000 1.0000
usemtl default
s 1
f 283//64 295//64 296//64
f 296//64 237//64 283//64
f 238//64 267//64 268//64
f 240//64 265//64 266//64
f 242//64 251//64 252//64
f 244//64 245//64 248//64
f 246//64 247//64 245//64
f 248//64 249//64 244//64
f 250//64 242//64 243//64
f 252//64 253//64 242//64
f 254//64 263//64 264//64
f 256//64 257//64 262//64
f 258//64 259//64 260//64
f 260//64 261//64 258//64
f 262//64 255//64 256//64
f 241//64 242//64 253//64
f 266//64 239//64 240//64
f 268//64 269//64 283//64
f 270//64 271//64 283//64
f 272//64 273//64 283//64
f 274//64 275//64 283//64
f 276//64 277//64 282//64
f 278//64 279//64 282//64
f 280//64 281//64 282//64
f 283//64 284//64 291//64
f 280//64 282//64 279//64
f 277//64 278//64 282//64
f 273//64 274//64 283//64
f 269//64 270//64 283//64
f 241//64 253//64 264//64
f 261//64 262//64 257//64
f 257//64 258//64 261//64
f 253//64 254//64 264//64
f 249//64 243//64 244//64
f 245//64 247//64 248//64
f 241//64 265//64 240//64
f 237//64 238//64 283//64
f 294//64 295//64 283//64
f 292//64 293//64 283//64
f 290//64 291//64 284//64
f 288//64 289//64 284//64
f 286//64 287//64 284//64
f 284//64 289//64 290//64
f 276//64 282//64 275//64
f 271//64 272//64 283//64
f 263//64 255//64 262//64
f 255//64 263//64 254//64
f 249//64 250//64 243//64
f 239//64 267//64 238//64
f 293//64 294//64 283//64
f 288//64 284//64 287//64
f 285//64 286//64 284//64
f 275//64 282//64 283//64
f 242//64 250//64 251//64
f 266//64 267//64 239//64
f 291//64 292//64 283//64
f 268//64 283//64 238//64
f 265//64 241//64 264//64
o Extrude.1
v 2.413548 -3.963533 -0.130496
v -0.036046 -3.963533 -0.130496
v -0.036046 -3.963533 0.240655
v 2.413548 -3.963533 0.240655
v -2.485639 -3.963533 -0.130496
v -2.485639 -3.963533 0.240655
v -2.137155 -4.085435 -0.130496
v -2.137155 -4.085435 0.240655
v -1.837460 -4.226612 -0.130496
v -1.837460 -4.226612 0.240655
v -1.583702 -4.379497 -0.130496
v -1.583702 -4.379497 0.240655
v -1.373029 -4.536532 -0.130496
v -1.373029 -4.536532 0.240655
v -1.202591 -4.690155 -0.130496
v -1.202591 -4.690155 0.240655
v -1.047160 -4.859348 -0.130496
v -1.047160 -4.859348 0.240655
v -0.940633 -4.999671 -0.130496
v -0.940633 -4.999671 0.240655
v -0.878083 -5.098059 -0.130496
v -0.878083 -5.098059 0.240655
v -0.854115 -5.142409 -0.130496
v -0.854115 -5.142409 0.240655
v -1.016062 -9.041519 -0.130496
v -1.016062 -9.041519 0.240654
v -0.671765 -9.095621 -0.130496
v -0.671765 -9.095621 0.240654
v -0.222550 -9.127279 -0.130496
v -0.222550 -9.127279 0.240654
v -0.036046 -9.128719 -0.130496
v -0.036046 -9.128719 0.240654
v 0.340629 -9.118561 -0.130496
v 0.340629 -9.118561 0.240654
v 0.627459 -9.092340 -0.130496
v 0.627459 -9.092340 0.240654
v 0.943969 -9.041519 -0.130496
v 0.943969 -9.041519 0.240654
v 0.782025 -5.142409 -0.130496
v 0.782025 -5.142409 0.240655
v 0.813573 -5.085128 -0.130496
v 0.813573 -5.085128 0.240655
v 0.898922 -4.956912 -0.130496
v 0.898922 -4.956912 0.240655
v 1.021202 -4.805513 -0.130496
v 1.021202 -4.805513 0.240655
v 1.194030 -4.629598 -0.130496
v 1.194030 -4.629598 0.240655
v 1.380219 -4.473705 -0.130496
v 1.380219 -4.473705 0.240655
v 1.607783 -4.317421 -0.130496
v 1.607783 -4.317421 0.240655
v 1.879574 -4.168313 -0.130496
v 1.879574 -4.168313 0.240655
v 2.130766 -4.059271 -0.130496
v 2.130766 -4.059271 0.240655
vn 0.0000 1.0000 0.0000
vn -0.3787 -0.9255 0.0000
vn -0.3302 -0.9439 0.0000
vn -0.4717 -0.8817 0.0000
vn -0.5575 -0.8302 0.0000
vn -0.6343 -0.7731 0.0000
vn -0.7037 -0.7104 0.0000
vn -0.7673 -0.6413 0.0000
vn -0.8209 -0.5711 0.0000
vn -0.8624 -0.5063 0.0000
vn -0.8797 -0.4754 0.0000
vn -0.9991 0.0415 0.0000
vn -0.1129 -0.9936 0.0000
vn -0.1552 -0.9879 0.0000
vn -0.0390 -0.9992 0.0000
vn -0.0077 -1.0000 0.0000
vn 0.0590 -0.9983 0.0000
vn 0.0270 -0.9996 0.0000
vn 0.1249 -0.9922 0.0000
vn 0.1585 -0.9874 0.0000
vn 0.9991 0.0415 0.0000
vn 0.8549 -0.5187 0.0000
vn 0.8759 -0.4824 0.0000
vn 0.8060 -0.5919 0.0000
vn 0.7465 -0.6654 0.0000
vn 0.6785 -0.7346 0.0000
vn 0.6047 -0.7964 0.0000
vn 0.5242 -0.8516 0.0000
vn 0.4401 -0.8980 0.0000
vn 0.3597 -0.9330 0.0000
vn 0.3207 -0.9472 0.0000
usemtl default
s 1
f 298//65 300//65 297//65
f 301//65 299//65 298//65
f 303//66 302//67 301//67
f 305//68 304//66 303//66
f 305//68 308//69 306//68
f 307//69 310//70 308//69
f 311//71 310//70 309//70
f 313//72 312//71 311//71
f 315//73 314//72 313//72
f 317//74 316//73 315//73
f 319//75 318//74 317//74
f 319//76 322//76 320//76
f 323//77 322//78 321//78
f 323//77 326//79 324//77
f 327//80 326//79 325//79
f 329//81 328//82 327//82
f 331//83 330//81 329//81
f 333//84 332//83 331//83
f 335//85 334//85 333//85
f 337//86 336//87 335//87
f 339//88 338//86 337//86
f 341//89 340//88 339//88
f 343//90 342//89 341//89
f 345//91 344//90 343//90
f 347//92 346//91 345//91
f 347//92 350//93 348//92
f 351//94 350//93 349//93
f 297//95 352//94 351//94
f 298//65 299//65 300//65
f 301//65 302//65 299//65
f 303//66 304//66 302//67
f 305//68 306//68 304//66
f 305//68 307//69 308//69
f 307//69 309//70 310//70
f 311//71 312//71 310//70
f 313//72 314//72 312//71
f 315//73 316//73 314//72
f 317//74 318//74 316//73
f 319//75 320//75 318//74
f 319//76 321//76 322//76
f 323//77 324//77 322//78
f 323//77 325//79 326//79
f 327//80 328//80 326//79
f 329//81 330//81 328//82
f 331//83 332//83 330//81
f 333//84 334//84 332//83
f 335//85 336//85 334//85
f 337//86 338//86 336//87
f 339//88 340//88 338//86
f 341//89 342//89 340//88
f 343//90 344//90 342//89
f 345//91 346//91 344//90
f 347//92 348//92 346//91
f 347//92 349//93 350//93
f 351//94 352//94 350//93
f 297//95 300//95 352//94
