<?xml version="1.0" encoding="utf-8"?>
<!-- Generator: Adobe Illustrator 21.0.0, SVG Export Plug-In . SVG Version: 6.00 Build 0)  -->
<svg version="1.1" xmlns="http://www.w3.org/2000/svg" xmlns:xlink="http://www.w3.org/1999/xlink" x="0px" y="0px"
	 viewBox="0 0 447.2 236.6" style="enable-background:new 0 0 447.2 236.6;" xml:space="preserve">
<style type="text/css">
	.st0{fill:#F1EEE7;}
	.st1{fill:#4332A5;}
	.st2{fill:#302575;}
</style>
<g id="Layer_1">
	<g id="Layer_2">
	</g>
	<g id="Layer_1_1_">
	</g>
	<g id="Isolation_Mode">
	</g>
	<g id="phone_1">
		<path class="st0" d="M415.1,236.6H32c-17.7,0-32-14.3-32-32V32C0,14.3,14.3,0,32,0h383.1c17.7,0,32,14.3,32,32v172.5
			C447.2,222.3,432.8,236.6,415.1,236.6z"/>
	</g>
	<g id="phone_screen">
		<rect x="55.5" y="20.4" class="st1" width="348.5" height="195.9"/>
	</g>
	<g id="phone_speaker">
		<path class="st2" d="M41.2,127.4h-3.7c-1.2,0-2.1-0.9-2.1-2.1v-14.1c0-1.2,0.9-2.1,2.1-2.1h3.7c1.2,0,2.1,0.9,2.1,2.1v14.1
			C43.3,126.5,42.4,127.4,41.2,127.4z"/>
	</g>
	<g id="phone_speaker_2">
		<path class="st2" d="M21.6,154.4L21.6,154.4c-2.2,0-3.9-1.8-3.9-3.9V86.2c0-2.2,1.8-3.9,3.9-3.9l0,0c2.2,0,3.9,1.8,3.9,3.9v64.3
			C25.5,152.6,23.8,154.4,21.6,154.4z"/>
	</g>
	<g id="phone_camera">
		<circle class="st2" cx="23" cy="197" r="5.4"/>
	</g>
</g>
<g id="phone_1_1_">
</g>
<g id="phone_screen_1_">
</g>
<g id="phone_speaker_1_">
</g>
<g id="phone_speaker_2_1_">
</g>
<g id="phone_camera_1_">
</g>
</svg>
