<svg xmlns="http://www.w3.org/2000/svg" viewBox="0 0 447.2 236.6"><style>.st0{fill:#ea6f4e}.st1{fill:#271a56}.st2{fill:#123f6b}.st3{enable-background:new}.st4{fill:#d8d5d2}.st5{fill:#a51616}.st6{fill:#f1eee7}.st7{fill:#d31616}.st8{fill:#124888}.st9{fill:#fff}.st10,.st11{fill:none;stroke:#fff;stroke-width:5;stroke-miterlimit:10}.st11{stroke:#231f20;stroke-width:.5}.st12{fill:#44237f}.st13{fill:#fff100}.st14{opacity:.2;fill:#271a56}.st15{fill:#2764a0}.st16{fill:#133a60}.st17{fill:#ff9b9a}.st18{fill:#fdb1b1}.st19{fill:#f2aaae}.st20{fill:#f29191}.st21{fill:#34c177}.st22{fill:#09494c}.st23{fill:#25995c}.st24{fill:#2c7c59}.st25{fill:#286648}.st26{fill:#23b76d}.st27{fill:none;stroke:#95ffba;stroke-width:10;stroke-miterlimit:10}.st28{fill:#36c67a}.st29{opacity:.4;fill:#073535}.st30{fill:#e35c27}.st31{fill:#ed6f48}.st32{fill:#d14d24}.st33{fill:#27679e}.st34{fill:#1d4b87}.st35{fill:#c0c2ce}.st36{opacity:.6;fill:#1a3573}.st37{fill:#0d375c}.st38{fill:#f9fc56}.st39{fill:none}.st40{opacity:.6;fill:#d87c8b}.st41{fill:#ea7a79}.st42{fill:#efbfc4}.st43{fill:#2caf6a}.st44{opacity:.4;fill:#18514f}.st45{fill:#f29090}.st46,.st47{fill:none;stroke:#231f20;stroke-width:5;stroke-miterlimit:10}.st47{stroke-linejoin:bevel}.st48{fill:#231f20}.st49{fill:#1e8e61}.st50{fill:#4fcd8d}.st51{fill:#41af70}.st52{fill:#d92928}.st53{opacity:.4;fill:#1e8e61}.st54{fill:#c12425}.st55{fill:none;stroke:#fff;stroke-miterlimit:10}.st56{fill:#255682}.st57{opacity:.4;fill:#0d375c}.st58{fill:#fca4a4}.st59{opacity:.4;fill:#f29090}.st60,.st61{fill:none;stroke:#d92928;stroke-width:16;stroke-miterlimit:10}.st61{stroke:#4fcd8d}</style><path class="st6" d="M415.1 236.6H32c-17.7 0-32-14.3-32-32V32C0 14.3 14.3 0 32 0h383.1c17.7 0 32 14.3 32 32v172.5c.1 17.8-14.3 32.1-32 32.1z" id="phone_1"/><path class="st33" d="M55.5 20.4H404v195.9H55.5z" id="phone_screen"/><path class="st56" d="M41.2 127.4h-3.7c-1.2 0-2.1-.9-2.1-2.1v-14.1c0-1.2.9-2.1 2.1-2.1h3.7c1.2 0 2.1.9 2.1 2.1v14.1c0 1.2-.9 2.1-2.1 2.1z" id="phone_speaker"/><path class="st56" d="M21.6 154.4c-2.2 0-3.9-1.8-3.9-3.9V86.2c0-2.2 1.8-3.9 3.9-3.9 2.2 0 3.9 1.8 3.9 3.9v64.3c0 2.1-1.7 3.9-3.9 3.9z" id="phone_speaker_2"/><circle class="st56" cx="23" cy="197" r="5.4" id="phone_camera"/></svg>