<?xml version="1.0" encoding="utf-8"?>
<!-- Generator: Adobe Illustrator 20.1.0, SVG Export Plug-In . SVG Version: 6.00 Build 0)  -->
<svg version="1.1" xmlns="http://www.w3.org/2000/svg" xmlns:xlink="http://www.w3.org/1999/xlink" x="0px" y="0px"
	 viewBox="0 0 447.2 236.6" style="enable-background:new 0 0 447.2 236.6;" xml:space="preserve">
<style type="text/css">
	.st0{fill:#EA6F4E;}
	.st1{fill:#271A56;}
	.st2{fill:#123F6B;}
	.st3{enable-background:new    ;}
	.st4{fill:#D8D5D2;}
	.st5{fill:#A51616;}
	.st6{fill:#F1EEE7;}
	.st7{fill:#D31616;}
	.st8{fill:#124888;}
	.st9{fill:#FFFFFF;}
	.st10{fill:none;stroke:#FFFFFF;stroke-width:5;stroke-miterlimit:10;}
	.st11{fill:none;stroke:#231F20;stroke-width:0.5;stroke-miterlimit:10;}
	.st12{fill:#44237F;}
	.st13{fill:#FFF100;}
	.st14{opacity:0.2;fill:#271A56;}
	.st15{fill:#2764A0;}
	.st16{fill:#133A60;}
	.st17{fill:#FF9B9A;}
	.st18{fill:#FDB1B1;}
	.st19{fill:#F2AAAE;}
	.st20{fill:#F29191;}
	.st21{fill:#34C177;}
	.st22{fill:#09494C;}
	.st23{fill:#25995C;}
	.st24{fill:#2C7C59;}
	.st25{fill:#286648;}
	.st26{fill:#23B76D;}
	.st27{fill:none;stroke:#95FFBA;stroke-width:10;stroke-miterlimit:10;}
	.st28{fill:#36C67A;}
	.st29{opacity:0.4;fill:#073535;}
	.st30{fill:#E35C27;}
	.st31{fill:#ED6F48;}
	.st32{fill:#D14D24;}
	.st33{fill:#27679E;}
	.st34{fill:#1D4B87;}
	.st35{fill:#C0C2CE;}
	.st36{opacity:0.6;fill:#1A3573;}
	.st37{fill:#0D375C;}
	.st38{fill:#F9FC56;}
	.st39{fill:none;}
	.st40{opacity:0.6;fill:#D87C8B;}
	.st41{fill:#EA7A79;}
	.st42{fill:#EFBFC4;}
	.st43{fill:#2CAF6A;}
	.st44{opacity:0.4;fill:#18514F;}
	.st45{fill:#F29090;}
	.st46{fill:none;stroke:#231F20;stroke-width:5;stroke-miterlimit:10;}
	.st47{fill:none;stroke:#231F20;stroke-width:5;stroke-linejoin:bevel;stroke-miterlimit:10;}
	.st48{fill:#231F20;}
	.st49{fill:#1E8E61;}
	.st50{fill:#4FCD8D;}
	.st51{fill:#41AF70;}
	.st52{fill:#D92928;}
	.st53{opacity:0.4;fill:#1E8E61;}
	.st54{fill:#C12425;}
	.st55{fill:none;stroke:#FFFFFF;stroke-miterlimit:10;}
	.st56{fill:#255682;}
	.st57{opacity:0.4;fill:#0D375C;}
	.st58{fill:#FCA4A4;}
	.st59{opacity:0.4;fill:#F29090;}
	.st60{fill:none;stroke:#D92928;stroke-width:16;stroke-miterlimit:10;}
	.st61{fill:none;stroke:#4FCD8D;stroke-width:16;stroke-miterlimit:10;}
</style>
<g id="Layer_2">
</g>
<g id="Layer_1">
</g>
<g id="Isolation_Mode">
</g>
<g id="phone_1">
	<path class="st6" d="M415.1,236.6H32c-17.7,0-32-14.3-32-32V32C0,14.3,14.3,0,32,0h383.1c17.7,0,32,14.3,32,32v172.5
		C447.2,222.3,432.8,236.6,415.1,236.6z"/>
</g>
<g id="phone_screen">
	<rect x="55.5" y="20.4" class="st33" width="348.5" height="195.9"/>
</g>
<g id="phone_speaker">
	<path class="st56" d="M41.2,127.4h-3.7c-1.2,0-2.1-0.9-2.1-2.1v-14.1c0-1.2,0.9-2.1,2.1-2.1h3.7c1.2,0,2.1,0.9,2.1,2.1v14.1
		C43.3,126.5,42.4,127.4,41.2,127.4z"/>
</g>
<g id="phone_speaker_2">
	<path class="st56" d="M21.6,154.4L21.6,154.4c-2.2,0-3.9-1.8-3.9-3.9V86.2c0-2.2,1.8-3.9,3.9-3.9h0c2.2,0,3.9,1.8,3.9,3.9v64.3
		C25.5,152.6,23.8,154.4,21.6,154.4z"/>
</g>
<g id="phone_camera">
	<circle class="st56" cx="23" cy="197" r="5.4"/>
</g>
</svg>
