<svg xmlns="http://www.w3.org/2000/svg" viewBox="0 0 447.2 236.6"><style>.st0{fill:#f1eee7}.st1{fill:#4332a5}.st2{fill:#302575}</style><g id="Layer_1"><path class="st0" d="M415.1 236.6H32c-17.7 0-32-14.3-32-32V32C0 14.3 14.3 0 32 0h383.1c17.7 0 32 14.3 32 32v172.5c.1 17.8-14.3 32.1-32 32.1z" id="phone_1"/><path class="st1" d="M55.5 20.4H404v195.9H55.5z" id="phone_screen"/><path class="st2" d="M41.2 127.4h-3.7c-1.2 0-2.1-.9-2.1-2.1v-14.1c0-1.2.9-2.1 2.1-2.1h3.7c1.2 0 2.1.9 2.1 2.1v14.1c0 1.2-.9 2.1-2.1 2.1z" id="phone_speaker"/><path class="st2" d="M21.6 154.4c-2.2 0-3.9-1.8-3.9-3.9V86.2c0-2.2 1.8-3.9 3.9-3.9 2.2 0 3.9 1.8 3.9 3.9v64.3c0 2.1-1.7 3.9-3.9 3.9z" id="phone_speaker_2"/><circle class="st2" cx="23" cy="197" r="5.4" id="phone_camera"/></g></svg>